<svg width="402" height="102" viewBox="0 0 402 102" fill="none" xmlns="http://www.w3.org/2000/svg">
<path d="M94.3017 82.4132C93.2763 82.4132 92.3706 82.2503 91.5818 81.9272C90.7958 81.6041 90.1403 81.1371 89.6208 80.5316C89.0986 79.9262 88.7015 79.2013 88.4295 78.3569C88.1548 77.5125 88.0188 76.5785 88.0188 75.5522C88.0188 74.5259 88.1602 73.5648 88.4431 72.7096C88.7259 71.857 89.1312 71.1213 89.6616 70.5077C90.192 69.8941 90.8338 69.4189 91.5845 69.0877C92.3379 68.7537 93.1838 68.5881 94.1222 68.5881C94.8402 68.5881 95.5121 68.6479 96.1349 68.7673C96.7578 68.8868 97.2419 69.0415 97.5846 69.2289L97.1494 70.6624C96.8067 70.4914 96.4232 70.3556 95.9962 70.2524C95.5692 70.1493 94.9953 70.0977 94.2772 70.0977C92.8058 70.0977 91.6906 70.5701 90.9318 71.5177C90.1702 72.4652 89.7894 73.8092 89.7894 75.5495C89.7894 76.3342 89.8737 77.0564 90.0451 77.7134C90.2164 78.3705 90.4939 78.9325 90.8801 79.4022C91.2636 79.8719 91.7613 80.2384 92.3679 80.5018C92.9744 80.7679 93.7142 80.8982 94.5873 80.8982C95.3053 80.8982 95.9092 80.8167 96.396 80.6538C96.8829 80.4909 97.2392 80.3524 97.4595 80.233L97.8185 81.6665C97.5112 81.8376 97.027 82.0032 96.3688 82.1661C95.7106 82.329 95.0225 82.4105 94.3044 82.4105L94.3017 82.4132Z" fill="#182231"/>
<path d="M107.716 68.6424C108.263 68.6424 108.78 68.6859 109.269 68.77C109.756 68.8569 110.093 68.9411 110.281 69.0252L109.947 70.4588C109.811 70.3909 109.53 70.3176 109.112 70.2416C108.693 70.1656 108.141 70.1276 107.458 70.1276C106.74 70.1276 106.163 70.1791 105.728 70.2823C105.293 70.3855 105.004 70.4696 104.868 70.5375V82.1335H103.201V69.5139C103.628 69.3266 104.218 69.1338 104.972 68.9384C105.725 68.7429 106.639 68.6451 107.716 68.6451V68.6424Z" fill="#182231"/>
<path d="M126.693 75.5278C126.693 76.5677 126.543 77.5152 126.244 78.3705C125.945 79.223 125.526 79.9479 124.988 80.5452C124.449 81.1425 123.813 81.6068 123.078 81.9408C122.344 82.2747 121.531 82.4403 120.641 82.4403C119.752 82.4403 118.938 82.2747 118.204 81.9408C117.47 81.6068 116.833 81.1425 116.295 80.5452C115.756 79.9479 115.337 79.223 115.038 78.3705C114.739 77.5179 114.589 76.5704 114.589 75.5278C114.589 74.4852 114.739 73.5404 115.038 72.6851C115.337 71.8326 115.756 71.1023 116.295 70.4968C116.833 69.8913 117.47 69.4216 118.204 69.0877C118.938 68.7537 119.752 68.5881 120.641 68.5881C121.531 68.5881 122.341 68.7537 123.078 69.0877C123.813 69.4216 124.449 69.8913 124.988 70.4968C125.526 71.1023 125.945 71.8326 126.244 72.6851C126.543 73.5377 126.693 74.4852 126.693 75.5278ZM124.922 75.5278C124.922 73.8716 124.539 72.5548 123.769 71.572C122.999 70.5918 121.958 70.1004 120.641 70.1004C119.325 70.1004 118.283 70.5918 117.513 71.572C116.744 72.5548 116.36 73.8716 116.36 75.5278C116.36 77.184 116.744 78.4981 117.513 79.4701C118.283 80.442 119.325 80.928 120.641 80.928C121.958 80.928 122.999 80.442 123.769 79.4701C124.539 78.4981 124.922 77.184 124.922 75.5278Z" fill="#182231"/>
<path d="M135.617 80.9552C136.574 80.9552 137.366 80.7977 137.989 80.4828C138.611 80.1678 138.924 79.6329 138.924 78.8836C138.924 78.5252 138.87 78.2184 138.758 77.9632C138.647 77.708 138.465 77.4772 138.206 77.2709C137.948 77.0645 137.613 76.869 137.194 76.6817C136.776 76.4944 136.259 76.2717 135.644 76.0165C135.149 75.8129 134.678 75.6038 134.232 75.3893C133.789 75.1748 133.395 74.9278 133.052 74.6481C132.709 74.3658 132.437 74.0291 132.231 73.6381C132.027 73.2471 131.923 72.7666 131.923 72.2046C131.923 71.1294 132.329 70.2579 133.142 69.5927C133.952 68.9275 135.07 68.5935 136.487 68.5935C137.393 68.5935 138.141 68.6696 138.731 68.8243C139.321 68.9791 139.735 69.1148 139.974 69.2343L139.591 70.7194C139.384 70.6163 139.038 70.4805 138.552 70.3095C138.065 70.1384 137.349 70.0542 136.411 70.0542C136.036 70.0542 135.679 70.0923 135.348 70.171C135.013 70.247 134.719 70.3665 134.464 70.5294C134.208 70.6923 134.001 70.8959 133.849 71.1457C133.694 71.3928 133.618 71.6968 133.618 72.0552C133.618 72.4136 133.686 72.7231 133.822 72.9784C133.958 73.2363 134.159 73.4616 134.426 73.6571C134.689 73.8526 135.016 74.0372 135.399 74.2056C135.783 74.3766 136.223 74.5612 136.721 74.7676C137.235 74.9712 137.725 75.1803 138.195 75.392C138.666 75.6038 139.079 75.859 139.438 76.1577C139.797 76.4563 140.088 76.8147 140.311 77.2328C140.534 77.651 140.646 78.175 140.646 78.8076C140.646 80.0022 140.197 80.9063 139.3 81.5199C138.402 82.1335 137.175 82.4403 135.62 82.4403C134.455 82.4403 133.569 82.3426 132.951 82.1471C132.337 81.9516 131.926 81.8023 131.719 81.6991L132.154 80.1895C132.206 80.2248 132.318 80.2791 132.489 80.3552C132.66 80.4312 132.892 80.5181 133.183 80.6104C133.474 80.7054 133.819 80.7868 134.222 80.8547C134.624 80.9226 135.089 80.9579 135.62 80.9579L135.617 80.9552Z" fill="#182231"/>
<path d="M149.184 80.9552C150.141 80.9552 150.933 80.7977 151.555 80.4828C152.178 80.1678 152.491 79.6329 152.491 78.8836C152.491 78.5252 152.437 78.2184 152.325 77.9632C152.214 77.708 152.031 77.4772 151.773 77.2709C151.515 77.0645 151.18 76.869 150.761 76.6817C150.342 76.4944 149.826 76.2717 149.211 76.0165C148.716 75.8129 148.245 75.6038 147.799 75.3893C147.356 75.1748 146.962 74.9278 146.619 74.6481C146.276 74.3658 146.004 74.0291 145.797 73.6381C145.593 73.2471 145.49 72.7666 145.49 72.2046C145.49 71.1294 145.895 70.2579 146.709 69.5927C147.519 68.9275 148.637 68.5935 150.054 68.5935C150.96 68.5935 151.708 68.6696 152.298 68.8243C152.888 68.9791 153.302 69.1148 153.541 69.2343L153.157 70.7194C152.951 70.6163 152.605 70.4805 152.118 70.3095C151.632 70.1384 150.916 70.0542 149.978 70.0542C149.603 70.0542 149.246 70.0923 148.914 70.171C148.58 70.247 148.286 70.3665 148.03 70.5294C147.775 70.6923 147.568 70.8959 147.416 71.1457C147.261 71.3928 147.185 71.6968 147.185 72.0552C147.185 72.4136 147.253 72.7231 147.389 72.9784C147.525 73.2363 147.726 73.4616 147.992 73.6571C148.256 73.8526 148.583 74.0372 148.966 74.2056C149.35 74.3766 149.79 74.5612 150.288 74.7676C150.802 74.9712 151.292 75.1803 151.762 75.392C152.233 75.6038 152.646 75.859 153.005 76.1577C153.364 76.4563 153.655 76.8147 153.878 77.2328C154.101 77.651 154.213 78.175 154.213 78.8076C154.213 80.0022 153.764 80.9063 152.866 81.5199C151.969 82.1335 150.742 82.4403 149.186 82.4403C148.022 82.4403 147.136 82.3426 146.518 82.1471C145.904 81.9516 145.493 81.8023 145.286 81.6991L145.721 80.1895C145.773 80.2248 145.884 80.2791 146.056 80.3552C146.227 80.4312 146.458 80.5181 146.749 80.6104C147.04 80.7054 147.386 80.7868 147.788 80.8547C148.191 80.9226 148.656 80.9579 149.186 80.9579L149.184 80.9552Z" fill="#182231"/>
<path d="M393.158 80.9552C394.115 80.9552 394.907 80.7977 395.53 80.4828C396.153 80.1678 396.465 79.6329 396.465 78.8836C396.465 78.5252 396.411 78.2184 396.299 77.9632C396.188 77.708 396.006 77.4772 395.747 77.2709C395.489 77.0645 395.154 76.869 394.735 76.6817C394.317 76.4944 393.8 76.2717 393.185 76.0165C392.69 75.8129 392.22 75.6038 391.774 75.3893C391.33 75.1748 390.936 74.9278 390.593 74.6481C390.25 74.3658 389.978 74.0291 389.772 73.6381C389.568 73.2471 389.464 72.7666 389.464 72.2046C389.464 71.1294 389.87 70.2579 390.683 69.5927C391.493 68.9275 392.611 68.5935 394.028 68.5935C394.934 68.5935 395.682 68.6696 396.272 68.8243C396.862 68.9791 397.276 69.1148 397.515 69.2343L397.132 70.7194C396.925 70.6163 396.58 70.4805 396.093 70.3095C395.606 70.1384 394.891 70.0542 393.952 70.0542C393.577 70.0542 393.221 70.0923 392.889 70.171C392.554 70.247 392.26 70.3665 392.005 70.5294C391.749 70.6923 391.542 70.8959 391.39 71.1457C391.235 71.3928 391.159 71.6968 391.159 72.0552C391.159 72.4136 391.227 72.7231 391.363 72.9784C391.499 73.2363 391.7 73.4616 391.967 73.6571C392.23 73.8526 392.557 74.0372 392.94 74.2056C393.324 74.3766 393.764 74.5612 394.262 74.7676C394.776 74.9712 395.266 75.1803 395.736 75.392C396.207 75.6038 396.62 75.859 396.979 76.1577C397.338 76.4563 397.629 76.8147 397.853 77.2328C398.076 77.651 398.187 78.175 398.187 78.8076C398.187 80.0022 397.738 80.9063 396.841 81.5199C395.943 82.1335 394.716 82.4403 393.161 82.4403C391.997 82.4403 391.11 82.3426 390.492 82.1471C389.878 81.9516 389.467 81.8023 389.26 81.6991L389.696 80.1895C389.747 80.2248 389.859 80.2791 390.03 80.3552C390.201 80.4312 390.433 80.5181 390.724 80.6104C391.015 80.7054 391.36 80.7868 391.763 80.8547C392.165 80.9226 392.63 80.9579 393.161 80.9579L393.158 80.9552Z" fill="#182231"/>
<path d="M158.543 73.9151H164.339V75.5278H158.543V73.9151Z" fill="#182231"/>
<path d="M171.519 69.6904C171.81 69.4678 172.276 69.2343 172.917 68.9872C173.559 68.7402 174.316 68.6153 175.186 68.6153C176.143 68.6153 176.995 68.7863 177.737 69.1284C178.48 69.4705 179.108 69.9484 179.622 70.562C180.136 71.1756 180.522 71.9059 180.789 72.7503C181.053 73.5947 181.186 74.5205 181.186 75.5278C181.186 76.603 181.028 77.5668 180.713 78.4193C180.397 79.2719 179.951 79.9968 179.38 80.5941C178.806 81.1914 178.123 81.6475 177.329 81.9625C176.535 82.2774 175.648 82.4349 174.675 82.4349C173.494 82.4349 172.52 82.3589 171.751 82.2041C170.981 82.0494 170.35 81.8892 169.852 81.7181V62.5688L171.519 62.262V69.6904ZM171.519 80.5697C171.775 80.6538 172.156 80.7353 172.662 80.814C173.165 80.89 173.829 80.928 174.65 80.928C176.086 80.928 177.239 80.4638 178.112 79.5325C178.986 78.604 179.421 77.2681 179.421 75.5251C179.421 74.792 179.345 74.097 179.19 73.4372C179.035 72.7802 178.787 72.2073 178.447 71.7213C178.104 71.2353 177.656 70.847 177.101 70.5565C176.546 70.266 175.858 70.1221 175.036 70.1221C174.642 70.1221 174.267 70.1601 173.908 70.2362C173.548 70.3122 173.214 70.4126 172.907 70.5294C172.599 70.6488 172.33 70.7765 172.099 70.9122C171.868 71.048 171.677 71.1783 171.522 71.295V80.5615L171.519 80.5697Z" fill="#182231"/>
<path d="M198.702 75.5278C198.702 76.5677 198.552 77.5152 198.253 78.3705C197.954 79.223 197.535 79.9479 196.997 80.5452C196.458 81.1425 195.822 81.6068 195.087 81.9408C194.353 82.2747 193.54 82.4403 192.65 82.4403C191.761 82.4403 190.948 82.2747 190.213 81.9408C189.479 81.6068 188.842 81.1425 188.304 80.5452C187.765 79.9479 187.346 79.223 187.047 78.3705C186.748 77.5179 186.599 76.5704 186.599 75.5278C186.599 74.4852 186.748 73.5404 187.047 72.6851C187.346 71.8326 187.765 71.1023 188.304 70.4968C188.842 69.8913 189.479 69.4216 190.213 69.0877C190.948 68.7537 191.761 68.5881 192.65 68.5881C193.54 68.5881 194.35 68.7537 195.087 69.0877C195.822 69.4216 196.458 69.8913 196.997 70.4968C197.535 71.1023 197.954 71.8326 198.253 72.6851C198.552 73.5377 198.702 74.4852 198.702 75.5278ZM196.931 75.5278C196.931 73.8716 196.548 72.5548 195.778 71.572C195.008 70.5918 193.967 70.1004 192.65 70.1004C191.334 70.1004 190.292 70.5918 189.522 71.572C188.753 72.5548 188.369 73.8716 188.369 75.5278C188.369 77.184 188.753 78.4981 189.522 79.4701C190.292 80.442 191.334 80.928 192.65 80.928C193.967 80.928 195.008 80.442 195.778 79.4701C196.548 78.4981 196.931 77.184 196.931 75.5278Z" fill="#182231"/>
<path d="M208.6 68.6424C209.146 68.6424 209.663 68.6859 210.153 68.77C210.64 68.8569 210.977 68.9411 211.165 69.0252L210.83 70.4588C210.694 70.3909 210.414 70.3176 209.995 70.2416C209.576 70.1656 209.024 70.1276 208.341 70.1276C207.623 70.1276 207.047 70.1791 206.611 70.2823C206.176 70.3855 205.888 70.4696 205.752 70.5375V82.1335H204.085V69.5139C204.512 69.3266 205.102 69.1338 205.855 68.9384C206.609 68.7429 207.523 68.6451 208.6 68.6451V68.6424Z" fill="#182231"/>
<path d="M226.807 81.7236C226.312 81.8946 225.678 82.0575 224.908 82.2095C224.138 82.3643 223.165 82.4403 221.984 82.4403C221.011 82.4403 220.124 82.2829 219.33 81.9679C218.536 81.653 217.85 81.1968 217.279 80.5995C216.705 80.0022 216.262 79.2773 215.946 78.4248C215.631 77.5722 215.473 76.6084 215.473 75.5332C215.473 74.5259 215.606 73.6001 215.87 72.7557C216.134 71.9113 216.523 71.181 217.037 70.5674C217.551 69.9538 218.179 69.4759 218.922 69.1338C219.664 68.7917 220.516 68.6207 221.473 68.6207C222.346 68.6207 223.102 68.7456 223.741 68.9927C224.383 69.2397 224.848 69.4759 225.139 69.6959V62.5797L226.807 62.2729V81.729V81.7236ZM225.139 71.3059C224.984 71.1864 224.794 71.0588 224.563 70.9231C224.332 70.7873 224.062 70.6597 223.755 70.5402C223.448 70.4208 223.113 70.323 222.754 70.247C222.395 70.171 222.02 70.133 221.625 70.133C220.804 70.133 220.116 70.2769 219.561 70.5674C219.006 70.8579 218.557 71.2462 218.215 71.7321C217.872 72.2181 217.624 72.791 217.472 73.4481C217.317 74.1051 217.241 74.8002 217.241 75.5359C217.241 77.2763 217.676 78.6121 218.549 79.5434C219.422 80.4746 220.575 80.9389 222.012 80.9389C222.833 80.9389 223.494 80.9009 224 80.8249C224.503 80.7489 224.884 80.6674 225.142 80.5805V71.314L225.139 71.3059Z" fill="#182231"/>
<path d="M233.013 75.5006C233.013 74.3413 233.179 73.3286 233.514 72.4679C233.848 71.6073 234.284 70.8851 234.822 70.304C235.361 69.723 235.975 69.294 236.669 69.0117C237.363 68.7293 238.075 68.5908 238.81 68.5908C240.433 68.5908 241.728 69.1203 242.696 70.1791C243.662 71.238 244.146 72.867 244.146 75.069C244.146 75.2047 244.141 75.3432 244.132 75.4789C244.124 75.6147 244.111 75.745 244.094 75.8617H234.784C234.836 77.4826 235.238 78.7289 235.989 79.6004C236.742 80.4719 237.939 80.9063 239.579 80.9063C240.485 80.9063 241.203 80.8222 241.733 80.6511C242.264 80.4801 242.647 80.3362 242.887 80.2167L243.194 81.6502C242.955 81.786 242.506 81.9489 241.848 82.1362C241.189 82.3236 240.414 82.4186 239.528 82.4186C238.366 82.4186 237.373 82.2476 236.552 81.9055C235.731 81.5634 235.056 81.0855 234.526 80.4719C233.995 79.8583 233.612 79.128 233.372 78.2836C233.133 77.4392 233.013 76.5134 233.013 75.5061V75.5006ZM242.424 74.4499C242.389 73.068 242.065 71.9928 241.451 71.2244C240.836 70.4561 239.963 70.0732 238.834 70.0732C238.236 70.0732 237.703 70.1927 237.232 70.4316C236.761 70.6706 236.351 70.9909 236 71.3928C235.649 71.7946 235.377 72.2589 235.179 72.7883C234.983 73.3177 234.866 73.8716 234.833 74.4526H242.424V74.4499Z" fill="#182231"/>
<path d="M254.966 68.6424C255.512 68.6424 256.029 68.6859 256.519 68.77C257.006 68.8569 257.343 68.9411 257.531 69.0252L257.196 70.4588C257.06 70.3909 256.78 70.3176 256.361 70.2416C255.942 70.1656 255.39 70.1276 254.707 70.1276C253.989 70.1276 253.413 70.1791 252.977 70.2823C252.542 70.3855 252.254 70.4696 252.118 70.5375V82.1335H250.451V69.5139C250.878 69.3266 251.468 69.1338 252.221 68.9384C252.975 68.7429 253.889 68.6451 254.966 68.6451V68.6424Z" fill="#182231"/>
<path d="M272.737 86.8686H271.07V69.3592C271.565 69.1881 272.199 69.0252 272.969 68.8732C273.738 68.7184 274.712 68.6424 275.893 68.6424C276.866 68.6424 277.753 68.7999 278.547 69.1148C279.341 69.4298 280.027 69.8859 280.598 70.4832C281.172 71.0805 281.615 71.8055 281.931 72.658C282.246 73.5105 282.404 74.4743 282.404 75.5495C282.404 76.5568 282.271 77.4826 282.007 78.327C281.74 79.1714 281.354 79.8963 280.84 80.5018C280.326 81.1072 279.698 81.5824 278.955 81.9217C278.213 82.2638 277.361 82.4349 276.404 82.4349C275.531 82.4349 274.775 82.31 274.136 82.0629C273.494 81.8159 273.029 81.5796 272.737 81.3597V86.8686ZM272.737 79.7524C272.893 79.8719 273.083 79.9995 273.314 80.1352C273.545 80.271 273.815 80.4013 274.122 80.5181C274.429 80.6375 274.764 80.7353 275.123 80.814C275.482 80.89 275.857 80.928 276.252 80.928C277.073 80.928 277.761 80.7868 278.316 80.5045C278.871 80.2221 279.32 79.8393 279.662 79.3533C280.005 78.8673 280.253 78.2944 280.405 77.6374C280.56 76.9803 280.636 76.2853 280.636 75.5495C280.636 73.8092 280.201 72.4734 279.328 71.5421C278.455 70.6135 277.301 70.1466 275.865 70.1466C275.044 70.1466 274.383 70.1846 273.877 70.2606C273.374 70.3366 272.993 70.4181 272.735 70.5049V79.747L272.737 79.7524Z" fill="#182231"/>
<path d="M292.636 68.5908C293.509 68.5908 294.246 68.7157 294.856 68.9628C295.462 69.2099 295.954 69.552 296.33 69.9864C296.705 70.4208 296.98 70.9366 297.151 71.534C297.323 72.1313 297.407 72.7802 297.407 73.4806V81.8267C297.236 81.8783 296.988 81.9326 296.664 81.9923C296.338 82.0521 295.963 82.1172 295.536 82.1851C295.109 82.253 294.633 82.31 294.113 82.3507C293.591 82.3942 293.058 82.4159 292.511 82.4159C291.809 82.4159 291.165 82.3399 290.575 82.1851C289.984 82.0303 289.473 81.7887 289.035 81.4548C288.6 81.1208 288.257 80.6945 288.01 80.176C287.762 79.6547 287.637 79.0194 287.637 78.27C287.637 77.5207 287.773 76.9396 288.048 76.4265C288.32 75.9133 288.706 75.4925 289.201 75.1585C289.696 74.8246 290.286 74.583 290.972 74.4282C291.654 74.2734 292.4 74.1974 293.202 74.1974C293.441 74.1974 293.694 74.211 293.958 74.2354C294.222 74.2599 294.48 74.2952 294.728 74.3386C294.975 74.382 295.19 74.4228 295.37 74.4662C295.549 74.5097 295.672 74.5477 295.742 74.5802V73.7603C295.742 73.2987 295.707 72.8508 295.639 72.4164C295.571 71.9819 295.421 71.5882 295.19 71.238C294.959 70.8878 294.635 70.6054 294.216 70.3936C293.798 70.1819 293.245 70.0732 292.563 70.0732C291.589 70.0732 290.86 70.1411 290.381 70.2796C289.903 70.4153 289.552 70.5267 289.332 70.6135L289.1 69.1528C289.391 69.0171 289.84 68.8895 290.447 68.77C291.053 68.6506 291.785 68.5908 292.639 68.5908H292.636ZM292.791 80.9308C293.441 80.9308 294.01 80.909 294.497 80.8656C294.983 80.8222 295.397 80.7679 295.74 80.7V76.0409C295.552 75.9568 295.253 75.8672 294.842 75.7722C294.431 75.6798 293.868 75.631 293.15 75.631C292.74 75.631 292.313 75.6608 291.869 75.7206C291.423 75.7803 291.015 75.9079 290.637 76.1034C290.262 76.2989 289.954 76.5677 289.715 76.9098C289.476 77.2519 289.356 77.7026 289.356 78.2673C289.356 78.7614 289.438 79.1796 289.601 79.5216C289.764 79.8637 289.995 80.1352 290.294 80.3416C290.594 80.5452 290.953 80.6973 291.371 80.7896C291.79 80.8846 292.264 80.9308 292.794 80.9308H292.791Z" fill="#182231"/>
<path d="M307.87 82.4132C307.313 81.3679 306.774 80.2846 306.249 79.1578C305.727 78.0311 305.237 76.8935 304.781 75.7423C304.326 74.5911 303.91 73.4399 303.532 72.2887C303.154 71.1376 302.83 70.0054 302.558 68.8949H304.329C304.517 69.7149 304.756 70.5973 305.047 71.5448C305.338 72.4924 305.667 73.4698 306.032 74.4771C306.399 75.4844 306.804 76.5161 307.247 77.575C307.691 78.6338 308.175 79.6737 308.7 80.6973C309.081 79.6438 309.418 78.6474 309.712 77.708C310.005 76.7713 310.277 75.8373 310.528 74.906C310.778 73.9775 311.02 73.0245 311.254 72.0525C311.488 71.0805 311.724 70.0271 311.969 68.8922H313.636C313.079 71.3683 312.453 73.7766 311.76 76.117C311.066 78.4573 310.307 80.5968 309.486 82.5353C309.162 83.3037 308.828 83.9635 308.482 84.5201C308.14 85.0739 307.756 85.5301 307.337 85.8884C306.916 86.2468 306.426 86.5102 305.868 86.6812C305.311 86.8523 304.653 86.9364 303.899 86.9364C303.47 86.9364 303.078 86.8849 302.727 86.7817C302.376 86.6785 302.156 86.6025 302.072 86.5509L302.403 85.169C302.471 85.2205 302.664 85.2938 302.983 85.3862C303.301 85.4785 303.63 85.5273 303.973 85.5273C304.451 85.5273 304.884 85.4758 305.27 85.3726C305.656 85.2694 306.002 85.0956 306.312 84.8486C306.619 84.6015 306.899 84.2811 307.147 83.8875C307.394 83.4938 307.634 82.9996 307.865 82.4023L307.87 82.4132Z" fill="#182231"/>
<path d="M319 69.3592C319.495 69.2234 320.142 69.0687 320.937 68.8976C321.731 68.7266 322.762 68.6424 324.026 68.6424C325.702 68.6424 326.915 69.1284 327.668 70.1004C327.753 70.0325 327.921 69.9185 328.169 69.7556C328.416 69.5927 328.729 69.4271 329.105 69.256C329.48 69.085 329.921 68.9411 330.426 68.8216C330.93 68.7021 331.49 68.6424 332.107 68.6424C333.116 68.6424 333.932 68.7917 334.555 69.0904C335.178 69.3891 335.662 69.8072 336.005 70.3448C336.348 70.8823 336.579 71.5258 336.698 72.2779C336.818 73.0299 336.878 73.8472 336.878 74.735V82.1335H335.211V75.2726C335.211 74.401 335.173 73.6463 335.096 73.0082C335.02 72.3675 334.865 71.8407 334.634 71.4199C334.403 71.0018 334.074 70.6869 333.647 70.4724C333.22 70.2579 332.662 70.152 331.979 70.152C331.465 70.152 331 70.1982 330.581 70.2932C330.163 70.3882 329.798 70.5022 329.491 70.638C329.183 70.7737 328.93 70.9122 328.735 71.048C328.539 71.1837 328.397 71.2869 328.31 71.3548C328.465 71.8 328.58 72.2969 328.656 72.8535C328.732 73.4073 328.77 73.9938 328.77 74.6074V82.1335H327.103V75.2726C327.103 74.401 327.065 73.6463 326.988 73.0082C326.912 72.3675 326.755 71.8407 326.515 71.4199C326.276 71.0018 325.939 70.6869 325.503 70.4724C325.068 70.2579 324.492 70.152 323.773 70.152C322.968 70.152 322.291 70.1954 321.734 70.2796C321.179 70.3638 320.822 70.4425 320.67 70.5104V82.1335H319.003V69.3592H319Z" fill="#182231"/>
<path d="M342.927 75.5006C342.927 74.3413 343.093 73.3286 343.427 72.4679C343.762 71.6073 344.197 70.8851 344.736 70.304C345.274 69.723 345.889 69.294 346.583 69.0117C347.276 68.7293 347.989 68.5908 348.723 68.5908C350.347 68.5908 351.642 69.1203 352.61 70.1791C353.575 71.238 354.06 72.867 354.06 75.069C354.06 75.2047 354.054 75.3432 354.046 75.4789C354.038 75.6147 354.024 75.745 354.008 75.8617H344.698C344.749 77.4826 345.152 78.7289 345.903 79.6004C346.656 80.4719 347.853 80.9063 349.493 80.9063C350.399 80.9063 351.117 80.8222 351.647 80.6511C352.177 80.4801 352.561 80.3362 352.8 80.2167L353.108 81.6502C352.868 81.786 352.419 81.9489 351.761 82.1362C351.103 82.3236 350.328 82.4186 349.441 82.4186C348.28 82.4186 347.287 82.2476 346.466 81.9055C345.644 81.5634 344.97 81.0855 344.439 80.4719C343.909 79.8583 343.525 79.128 343.286 78.2836C343.047 77.4392 342.927 76.5134 342.927 75.5061V75.5006ZM352.338 74.4499C352.302 73.068 351.979 71.9928 351.364 71.2244C350.749 70.4561 349.876 70.0732 348.748 70.0732C348.149 70.0732 347.616 70.1927 347.146 70.4316C346.675 70.6706 346.264 70.9909 345.913 71.3928C345.563 71.7946 345.291 72.2589 345.092 72.7883C344.896 73.3177 344.779 73.8716 344.747 74.4526H352.338V74.4499Z" fill="#182231"/>
<path d="M360.367 69.3592C360.862 69.2234 361.528 69.0687 362.366 68.8976C363.204 68.7266 364.229 68.6424 365.442 68.6424C366.451 68.6424 367.292 68.7863 367.969 69.0768C368.644 69.3673 369.182 69.78 369.585 70.3176C369.987 70.8552 370.273 71.4987 370.444 72.2507C370.616 73.0028 370.7 73.8282 370.7 74.735V82.1335H369.033V75.2726C369.033 74.3332 368.967 73.5404 368.839 72.8915C368.712 72.2426 368.497 71.7131 368.198 71.3032C367.898 70.8932 367.504 70.6 367.017 70.4208C366.53 70.2416 365.918 70.152 365.184 70.152C364.398 70.152 363.718 70.1954 363.144 70.2796C362.57 70.3638 362.2 70.4425 362.029 70.5104V82.1335H360.361V69.3592H360.367Z" fill="#182231"/>
<path d="M379.112 68.8976H384.394V70.3067H379.112V77.3469C379.112 78.0989 379.178 78.7071 379.306 79.1768C379.433 79.6465 379.618 80.0076 379.858 80.2656C380.097 80.5208 380.388 80.6918 380.731 80.7787C381.074 80.8629 381.449 80.9063 381.86 80.9063C382.561 80.9063 383.124 80.8249 383.551 80.662C383.978 80.4991 384.313 80.3497 384.552 80.214L384.963 81.5959C384.724 81.7507 384.305 81.9245 383.706 82.1199C383.108 82.3154 382.458 82.4132 381.756 82.4132C380.935 82.4132 380.247 82.3073 379.692 82.0928C379.137 81.881 378.691 81.5552 378.359 81.1208C378.027 80.6864 377.791 80.1434 377.655 79.4945C377.519 78.8456 377.451 78.0772 377.451 77.1894V65.0042L379.118 64.6974V68.8949L379.112 68.8976Z" fill="#182231"/>
<path d="M61.8316 35.9776L59.702 2.57701L52.3746 9.85336L52.0618 10.1249L52.3746 9.81806L46.2439 3.70105C42.7217 0.185051 37.815 -0.382395 34.2927 3.1336L22.1348 17.2926L25.9944 23.844C25.9944 23.844 29.3806 26.4885 32.9899 29.3474L35.1413 27.1998L39.3436 35.9803H61.8371L61.8316 35.9776Z" fill="#0095C4"/>
<path d="M15.4058 2.32994L18.1583 12.582L25.6761 5.07758L15.4058 2.32994Z" fill="#182231"/>
<path d="M81.151 61.4285C84.6733 64.9445 84.6733 70.6461 81.151 74.1621L69.8934 85.3997C72.1509 81.9109 71.7511 77.2084 68.6912 74.154L66.5833 72.0498C66.5643 72.0281 66.5479 72.0064 66.5316 71.9846L22.3171 27.846C18.7948 24.33 18.7948 18.6284 22.3171 15.1124L34.9129 2.539C34.9129 2.539 32.8022 13.1576 37.3961 17.746L81.1538 61.4258L81.151 61.4285Z" fill="#182231"/>
<path d="M22.2219 66.0224L24.3515 99.423L31.6789 92.1466L31.9917 91.8751L31.6789 92.1819L37.8096 98.299C41.3318 101.815 46.2385 102.382 49.7608 98.8664L61.9187 84.7074L58.0592 78.156C58.0592 78.156 54.6729 75.5115 51.0636 72.6526L48.9122 74.8002L44.7099 66.0197H22.2164L22.2219 66.0224Z" fill="#182231"/>
<path d="M68.6477 99.67L65.8952 89.418L58.3774 96.9224L68.6477 99.67Z" fill="#0095C4"/>
<path d="M49.1379 99.461C49.1379 99.461 51.2486 88.8424 46.6547 84.254L2.89975 40.5715C-0.622508 37.0555 -0.622508 31.3539 2.89975 27.8379L14.1574 16.6003C11.8999 20.0891 12.2997 24.7916 15.3596 27.846L17.4675 29.9502C17.4675 29.9502 17.4865 29.9719 17.4947 29.9828C17.5028 29.9936 17.511 30.0045 17.5192 30.0153L61.7365 74.154C62.974 75.3893 63.7764 76.8935 64.1436 78.4763C64.8235 81.4032 64.0212 84.6042 61.7365 86.8849L49.1379 99.461Z" fill="#0095C4"/>
<path d="M74.9279 80.3769L76.685 78.6175C75.7085 79.728 74.9606 80.3497 74.9279 80.3769Z" fill="url(#paint0_linear_4_173)"/>
<path d="M56.0682 93.6453L57.8252 91.886C56.8488 92.9965 56.1008 93.6182 56.0682 93.6453Z" fill="url(#paint1_linear_4_173)"/>
<path d="M176.473 35.2587C176.383 35.2341 176.288 35.2095 176.187 35.1849C176.285 35.1794 176.375 35.1767 176.473 35.174V35.2587Z" fill="#7EC78C"/>
<path d="M114.497 37.3704C114.07 36.222 113.423 35.2255 112.555 34.373C111.685 33.5205 110.594 32.7766 109.283 32.1385C107.969 31.5005 106.427 30.8543 104.659 30.1973C103.805 29.904 103.027 29.6162 102.323 29.3393C101.616 29.0597 100.993 28.7501 100.451 28.4053C99.9101 28.0605 99.4913 27.6777 99.1975 27.2514C98.901 26.8252 98.7542 26.3012 98.7542 25.6794C98.7542 24.6314 99.1567 23.8549 99.9591 23.3445C100.764 22.8395 102.083 22.5842 103.919 22.5842C105.559 22.5842 106.96 22.7743 108.121 23.149C109.286 23.5264 110.344 23.9608 111.296 24.4495L113.51 18.4112C112.427 17.822 111.051 17.2817 109.381 16.7903C107.708 16.2989 105.725 16.0545 103.43 16.0545C101.493 16.0545 99.7578 16.2935 98.2156 16.7659C96.6735 17.241 95.3625 17.9198 94.2827 18.8049C93.2029 19.69 92.3624 20.7624 91.7722 22.0222C91.182 23.282 90.8855 24.6993 90.8855 26.2686C90.8855 27.8379 91.1657 29.1737 91.7233 30.2678C92.2808 31.3674 93.0016 32.2987 93.8883 33.0671C94.775 33.8381 95.7732 34.4762 96.8911 34.9839C98.0035 35.4916 99.1214 35.9423 100.237 36.336C102.793 37.1858 104.597 37.9813 105.646 38.7171C105.769 38.8013 105.883 38.8881 105.989 38.9805C106.81 39.6701 107.221 40.5063 107.221 41.4919C107.221 42.0159 107.137 42.491 106.974 42.9173C106.81 43.3435 106.514 43.7101 106.09 44.0223C105.663 44.3345 105.097 44.5789 104.39 44.7581C103.685 44.94 102.79 45.0296 101.708 45.0296C99.5429 45.0296 97.7179 44.807 96.2247 44.3671C94.7315 43.9246 93.4776 43.425 92.4631 42.8684L90.298 48.9556C90.7577 49.2189 91.3234 49.4959 91.9952 49.7918C92.6698 50.085 93.4721 50.3647 94.4078 50.6253C95.3434 50.8887 96.4178 51.1086 97.6309 51.2878C98.8439 51.4697 100.207 51.5593 101.711 51.5593C106.204 51.5593 109.566 50.6823 111.796 48.9311C114.026 47.1799 115.142 44.7174 115.142 41.5408C115.142 40.3244 115.025 39.2411 114.788 38.2963C114.706 37.9705 114.611 37.6609 114.502 37.3677L114.497 37.3704Z" fill="#0095C4"/>
<path d="M155.864 31.476C155.567 30.0343 155.026 28.7909 154.24 27.7456C153.451 26.6976 152.393 25.8857 151.066 25.3129C149.736 24.74 148.039 24.4522 145.974 24.4522C144.826 24.4522 143.573 24.6667 142.213 25.093C140.853 25.5192 139.645 26.1084 138.601 26.8605C137.844 26.2061 136.884 25.6414 135.72 25.1663C134.556 24.6911 133.038 24.4522 131.173 24.4522C130.221 24.4522 129.252 24.4956 128.268 24.5771C127.286 24.6585 126.326 24.7726 125.39 24.9192C124.454 25.0685 123.57 25.2314 122.733 25.4106C121.898 25.5925 121.166 25.7636 120.543 25.9265V50.8697H127.873V30.9357C128.333 30.8706 128.809 30.8109 129.299 30.762C129.791 30.7131 130.267 30.6887 130.727 30.6887C132.203 30.6887 133.242 31.1801 133.852 32.163C134.445 33.1214 134.747 34.7368 134.76 37.0012V50.8697H142.09V36.6021C142.085 35.7197 142.055 34.8834 141.992 34.0988C141.927 33.2653 141.777 32.4725 141.549 31.7177C142.009 31.4217 142.591 31.1774 143.295 30.9819C144.002 30.7837 144.552 30.686 144.943 30.686C146.42 30.686 147.462 31.1774 148.069 32.1602C148.593 33.0128 148.893 34.3784 148.963 36.2573C148.974 36.5478 148.98 36.8519 148.98 37.1668V50.867H156.307V36.2817C156.307 36.1622 156.307 36.0428 156.302 35.926C156.285 34.297 156.141 32.8119 155.866 31.4733L155.864 31.476Z" fill="#0095C4"/>
<path d="M181.123 27.2053C180.253 26.2876 179.097 25.5844 177.656 25.093C176.211 24.6015 174.408 24.3545 172.246 24.3545C171.392 24.3545 170.548 24.3979 169.711 24.4794C168.876 24.5608 168.079 24.6585 167.325 24.7726C166.569 24.8866 165.873 25.0196 165.234 25.1663C164.595 25.3129 164.061 25.4541 163.634 25.5844L164.57 31.476C165.457 31.1475 166.504 30.895 167.72 30.7131C168.933 30.5339 170.162 30.4443 171.408 30.4443C173.276 30.4443 174.587 30.819 175.341 31.5738C176.094 32.3259 176.472 33.325 176.472 34.5685L176.473 35.2587C176.383 35.2341 176.288 35.2095 176.187 35.1849L176.181 35.1848C175.771 35.0871 175.267 35.0029 174.677 34.9377C173.937 34.8563 173.094 34.8156 172.142 34.8156C170.731 34.8156 169.371 34.954 168.06 35.231C167.698 35.307 167.35 35.3993 167.01 35.5025H167.007C166.118 35.7713 165.304 36.1324 164.567 36.5831C163.55 37.2048 162.737 38.041 162.13 39.0891C161.524 40.1371 161.222 41.4131 161.222 42.9173C161.222 44.4214 161.483 45.8142 162.008 46.8921C162.533 47.9727 163.289 48.8497 164.271 49.5203C165.256 50.1909 166.428 50.6742 167.79 50.9701C169.15 51.2634 170.668 51.4127 172.338 51.4127C174.995 51.4127 177.256 51.2552 179.127 50.9457C180.996 50.6335 182.456 50.3647 183.503 50.1339V34.9133C183.503 33.3087 183.324 31.8507 182.962 30.5448C182.6 29.2361 181.986 28.1202 181.118 27.2053H181.123ZM176.475 45.5672C176.081 45.6323 175.556 45.6812 174.9 45.7138C174.245 45.7464 173.554 45.7627 172.833 45.7627C171.487 45.7627 170.431 45.5427 169.659 45.1002C168.889 44.6576 168.503 43.8648 168.503 42.7164C168.503 42.1272 168.634 41.6358 168.897 41.2448C169.159 40.8511 169.52 40.5416 169.98 40.3108C170.44 40.0828 170.973 39.9253 171.579 39.8438C172.186 39.7624 172.833 39.7217 173.524 39.7217C174.014 39.7217 174.555 39.7542 175.148 39.8194C175.738 39.8846 176.179 39.9497 176.475 40.0149V45.5672Z" fill="#0095C4"/>
<path d="M203.87 24.7726C203.31 24.6911 202.755 24.626 202.197 24.5771C201.637 24.5282 201.164 24.5038 200.769 24.5038C198.571 24.5038 196.581 24.7074 194.794 25.1174C193.004 25.5274 191.456 25.9591 190.145 26.4179V50.8724H197.475V31.1339C197.802 31.0362 198.286 30.9466 198.928 30.8624C199.567 30.781 200.116 30.7403 200.576 30.7403C201.591 30.7403 202.543 30.8326 203.429 31.0118C204.316 31.191 205.086 31.362 205.741 31.5276L206.971 25.4866C206.579 25.3237 206.103 25.1853 205.545 25.0712C204.988 24.9545 204.43 24.8567 203.873 24.7753L203.87 24.7726Z" fill="#0095C4"/>
<path d="M233.726 50.8724H237.072V34.6174H251.335V31.7204H237.072V19.7416H253.154V16.8419H233.726V50.8724Z" fill="#0095C4"/>
<path d="M273.518 30.5421C273.189 29.3963 272.664 28.4053 271.943 27.5691C271.22 26.7356 270.276 26.0812 269.112 25.6061C267.948 25.131 266.531 24.892 264.858 24.892C263.185 24.892 261.817 25.0088 260.656 25.2369C259.489 25.4676 258.629 25.712 258.072 25.9726L258.515 28.7719C258.94 28.6089 259.614 28.3972 260.531 28.1338C261.45 27.8732 262.845 27.7428 264.711 27.7428C266.022 27.7428 267.08 27.9465 267.885 28.3564C268.688 28.7664 269.313 29.3067 269.757 29.9773C270.197 30.648 270.485 31.4 270.616 32.2363C270.708 32.8309 270.771 33.4417 270.798 34.0635C270.809 34.3133 270.815 34.5631 270.815 34.8156V36.3876C270.681 36.3224 270.445 36.2491 270.099 36.1649C269.757 36.0835 269.346 36.002 268.87 35.9206C268.394 35.8391 267.902 35.774 267.393 35.7224C266.884 35.6735 266.4 35.6491 265.94 35.6491C264.398 35.6491 262.973 35.7984 261.662 36.0916C260.351 36.3876 259.22 36.8546 258.268 37.4926C257.316 38.1306 256.579 38.9397 256.054 39.9226C255.529 40.9054 255.268 42.0838 255.268 43.4576C255.268 44.8314 255.504 46.1183 255.98 47.1148C256.456 48.1112 257.112 48.9311 257.949 49.5692C258.784 50.2072 259.769 50.6742 260.901 50.9701C262.032 51.2634 263.27 51.4127 264.613 51.4127C265.663 51.4127 266.688 51.3692 267.689 51.2878C268.688 51.2063 269.599 51.1005 270.42 50.9701C271.239 50.8398 271.96 50.7149 272.585 50.6009C273.208 50.4869 273.684 50.381 274.01 50.2832V34.2753C274.01 34.2128 274.01 34.1504 274.008 34.0906C273.994 32.8173 273.831 31.6362 273.521 30.5448L273.518 30.5421ZM270.812 48.1193C270.154 48.2496 269.359 48.3555 268.424 48.437C267.488 48.5184 266.397 48.5592 265.152 48.5592C264.134 48.5592 263.223 48.4696 262.421 48.2904C261.616 48.1112 260.928 47.8234 260.354 47.4297C259.78 47.036 259.337 46.5147 259.027 45.8577C258.714 45.2034 258.559 44.4024 258.559 43.4521C258.559 42.3716 258.787 41.5027 259.247 40.8484C259.707 40.1941 260.297 39.6782 261.017 39.3008C261.738 38.9262 262.527 38.6791 263.381 38.5651C264.232 38.451 265.054 38.3913 265.84 38.3913C267.219 38.3913 268.301 38.4836 269.087 38.6628C269.876 38.842 270.45 39.0158 270.812 39.1787V48.1193Z" fill="#0095C4"/>
<path d="M343.903 19.128C341.178 17.3415 337.278 16.4509 332.197 16.4509C330.785 16.4509 329.145 16.5161 327.279 16.6464C325.408 16.7767 323.64 17.0075 321.968 17.3333V50.8697H329.64V39.4773H332.053C337.166 39.4773 341.102 38.5705 343.857 36.7514C344.298 36.4609 344.706 36.1378 345.076 35.7848C347.018 33.9576 347.989 31.3267 347.989 27.8895C347.989 23.8305 346.629 20.9091 343.909 19.1253L343.903 19.128ZM329.638 23.1273C330.032 23.0947 330.5 23.0621 331.041 23.0295C331.582 22.9969 332.132 22.9806 332.689 22.9806C333.804 22.9806 334.822 23.0539 335.741 23.2006C336.658 23.3472 337.438 23.6105 338.077 23.9879C338.717 24.3626 339.209 24.8622 339.554 25.4839C339.897 26.1084 340.071 26.893 340.071 27.8433C340.071 29.8063 339.397 31.1502 338.053 31.867C336.707 32.5892 334.707 32.9476 332.053 32.9476H329.64V23.1273H329.638Z" fill="#0095C4"/>
<path d="M370.344 27.2053C369.473 26.2876 368.317 25.5844 366.876 25.093C365.434 24.6015 363.628 24.3545 361.466 24.3545C360.615 24.3545 359.769 24.3979 358.934 24.4794C358.096 24.5608 357.302 24.6585 356.546 24.7726C355.792 24.8866 355.096 25.0196 354.454 25.1663C353.815 25.3129 353.282 25.4541 352.855 25.5844L353.79 31.476C354.677 31.1475 355.727 30.895 356.94 30.7131C358.153 30.5339 359.382 30.4443 360.628 30.4443C362.497 30.4443 363.81 30.819 364.561 31.5738C365.317 32.3259 365.693 33.325 365.693 34.5685V35.2581C365.233 35.1278 364.634 35.0192 363.897 34.9377C363.16 34.8563 362.314 34.8156 361.362 34.8156C359.954 34.8156 358.591 34.954 357.283 35.231C356.257 35.4482 355.322 35.7713 354.478 36.2002C354.242 36.3197 354.011 36.4473 353.788 36.5831C352.77 37.2048 351.96 38.041 351.353 39.0891C350.744 40.1371 350.442 41.4131 350.442 42.9173C350.442 44.4214 350.703 45.8142 351.228 46.8921C351.753 47.9727 352.509 48.8497 353.494 49.5203C354.476 50.1909 355.651 50.6742 357.011 50.9701C358.371 51.2634 359.891 51.4127 361.561 51.4127C364.216 51.4127 366.479 51.2552 368.347 50.9457C370.218 50.6335 371.676 50.3647 372.723 50.1339V34.9133C372.723 33.3087 372.544 31.8507 372.182 30.5448C371.82 29.2361 371.206 28.1202 370.338 27.2053H370.344ZM365.695 45.5672C365.304 45.6323 364.776 45.6812 364.12 45.7138C363.465 45.7464 362.777 45.7627 362.056 45.7627C360.71 45.7627 359.652 45.5427 358.882 45.1002C358.109 44.6576 357.726 43.8648 357.726 42.7164C357.726 42.1272 357.857 41.6358 358.118 41.2448C358.381 40.8511 358.74 40.5416 359.2 40.3108C359.66 40.0828 360.193 39.9253 360.799 39.8438C361.406 39.7624 362.056 39.7217 362.744 39.7217C363.236 39.7217 363.778 39.7542 364.368 39.8194C364.958 39.8846 365.401 39.9497 365.695 40.0149V45.5672Z" fill="#0095C4"/>
<path d="M394.17 25.0441C393.841 26.3202 393.468 27.7048 393.057 29.19C392.647 30.6805 392.217 32.1874 391.774 33.7078C391.327 35.2282 390.876 36.7107 390.414 38.1497C390.395 38.2067 390.376 38.2637 390.359 38.3207C389.919 39.6945 389.492 40.9462 389.081 42.0756C388.618 40.8973 388.132 39.5886 387.623 38.1497C387.62 38.1415 387.618 38.1306 387.615 38.1225C387.109 36.6889 386.608 35.2174 386.116 33.7078C385.624 32.1847 385.153 30.6778 384.71 29.19C384.264 27.7021 383.878 26.3174 383.549 25.0441H375.775C377.113 29.6407 378.533 33.8327 380.032 37.6094C380.184 38.0003 380.339 38.3859 380.497 38.766C382.172 42.8413 383.845 46.5174 385.518 49.7891C385.025 51.0326 384.424 52.0073 383.72 52.7105C383.016 53.4137 382.006 53.7666 380.693 53.7666C380.037 53.7666 379.412 53.7178 378.821 53.62C378.231 53.5223 377.559 53.3404 376.803 53.0797L375.525 58.9225C376.148 59.1832 376.945 59.4194 377.913 59.6339C378.881 59.8456 379.942 59.9515 381.093 59.9515C382.472 59.9515 383.679 59.7968 384.71 59.4873C385.746 59.175 386.674 58.6836 387.495 58.013C388.317 57.3424 389.073 56.4898 389.764 55.4581C390.452 54.4264 391.143 53.1748 391.833 51.7032C393.74 47.6143 395.497 43.3897 397.11 39.0375C397.132 38.975 397.156 38.9126 397.178 38.8501C398.764 34.5522 400.287 29.9475 401.742 25.0441H394.164H394.17Z" fill="#0095C4"/>
<path d="M224.503 45.0513C223.665 45.1979 222.855 45.2712 222.066 45.2712C220.426 45.2712 219.335 44.8124 218.794 43.8974C218.253 42.9797 217.983 41.7525 217.983 40.2158V31.1312H226.788V25.0441H217.983V17.4311L210.653 18.6121V40.3135C210.653 41.9833 210.808 43.5065 211.121 44.8776C211.434 46.2541 211.983 47.4243 212.769 48.3908C213.558 49.3574 214.605 50.1095 215.919 50.6498C217.23 51.1901 218.886 51.4616 220.885 51.4616C222.46 51.4616 223.79 51.3285 224.87 51.0679C225.953 50.8072 226.934 50.495 227.821 50.1339L226.788 44.4404C226.1 44.7011 225.335 44.9074 224.5 45.054L224.503 45.0513Z" fill="#0095C4"/>
<path d="M294.717 39.404C294.026 38.8311 293.232 38.3424 292.329 37.9352C291.426 37.5279 290.485 37.1288 289.5 36.7351C288.548 36.3441 287.705 35.9857 286.965 35.6599C286.228 35.3341 285.605 34.9839 285.097 34.6065C284.923 34.4789 284.765 34.3431 284.621 34.1992C284.341 33.9277 284.112 33.6264 283.941 33.3006C283.677 32.8091 283.546 32.2173 283.546 31.5303C283.546 30.8434 283.693 30.257 283.99 29.7819C284.283 29.3067 284.678 28.913 285.17 28.6008C285.662 28.2886 286.228 28.0578 286.867 27.9112C287.506 27.7646 288.186 27.6913 288.91 27.6913C290.713 27.6913 292.084 27.8542 293.014 28.18C293.95 28.5085 294.614 28.7691 295.008 28.9673L295.745 26.1192C295.285 25.8885 294.491 25.6278 293.36 25.3319C292.228 25.0387 290.792 24.8893 289.057 24.8893C286.334 24.8893 284.196 25.5301 282.638 26.8062C281.079 28.0822 280.302 29.752 280.302 31.8127C280.302 32.7032 280.435 33.4825 280.704 34.1504C280.758 34.2943 280.821 34.43 280.892 34.5631C281.286 35.3178 281.808 35.964 282.467 36.5043C283.122 37.0446 283.875 37.5198 284.729 37.9297C285.584 38.337 286.484 38.7388 287.436 39.1325C288.616 39.6239 289.609 40.0502 290.414 40.4086C291.216 40.7697 291.864 41.1471 292.356 41.538C292.848 41.9317 293.202 42.3743 293.414 42.8657C293.626 43.3571 293.735 43.9463 293.735 44.6332C293.735 46.0749 293.137 47.0985 291.937 47.7039C290.74 48.3094 289.223 48.6107 287.39 48.6107C286.372 48.6107 285.477 48.5456 284.708 48.4153C283.935 48.2849 283.272 48.1302 282.714 47.9483C282.156 47.7691 281.713 47.6062 281.387 47.4569C281.058 47.3102 280.845 47.2044 280.748 47.1392L279.91 50.0362C280.304 50.2316 281.09 50.5194 282.271 50.8968C283.454 51.2715 285.159 51.4616 287.387 51.4616C290.371 51.4616 292.723 50.8724 294.445 49.6913C296.167 48.513 297.029 46.7781 297.029 44.4893C297.029 43.2784 296.814 42.2711 296.39 41.4674C295.963 40.6665 295.405 39.9769 294.717 39.404Z" fill="#0095C4"/>
<path d="M314.738 48.046C313.917 48.3583 312.834 48.513 311.491 48.513C310.702 48.513 309.981 48.4316 309.325 48.2687C308.667 48.1058 308.11 47.7772 307.653 47.2858C307.19 46.7944 306.839 46.0993 306.595 45.1979C306.347 44.2992 306.225 43.1263 306.225 41.6874V28.1854H316.359V25.4839H306.225V17.4311L303.026 18.023V41.3941C303.026 43.0965 303.157 44.5708 303.421 45.8115C303.682 47.0577 304.133 48.0949 304.772 48.9311C305.412 49.7674 306.266 50.3891 307.332 50.7964C308.398 51.2063 309.717 51.4127 311.289 51.4127C312.636 51.4127 313.881 51.2226 315.026 50.848C316.174 50.4706 316.979 50.1339 317.439 49.8407L316.65 47.1881C316.19 47.4487 315.551 47.7365 314.733 48.046H314.738Z" fill="#0095C4"/>
<defs>
<linearGradient id="paint0_linear_4_173" x1="213.43" y1="57.5122" x2="206.292" y2="-1.9641" gradientUnits="userSpaceOnUse">
<stop stop-color="white" stop-opacity="0"/>
<stop offset="0.51" stop-color="white"/>
</linearGradient>
<linearGradient id="paint1_linear_4_173" x1="213.43" y1="57.3571" x2="206.285" y2="-1.99642" gradientUnits="userSpaceOnUse">
<stop stop-color="white" stop-opacity="0"/>
<stop offset="0.51" stop-color="white"/>
</linearGradient>
</defs>
</svg>
